# xmcd CD database file
#
# Track frame offsets:
#	150
#	15109
#	30358
#	41788
#
# Disc length: 681 seconds
#
# Revision: 1
# Processed by: cddbd v1.5.2PL0 Copyright (c) Steve Scherf et al.
# Submitted via: CDex 1.70beta2
#
DISCID=1e02a704
DTITLE=Britta Persson - Britta Persson
DYEAR=2004
DGENRE=Acoustic
TTITLE0=I miss
TTITLE1=All i know
TTITLE2=Defrag my heart
TTITLE3=Don't bother
EXTD=YEAR: 2004
EXTT0=
EXTT1=
EXTT2=
EXTT3=
PLAYORDER=
